<svg width="62" height="54" viewBox="0 0 62 54" fill="none" xmlns="http://www.w3.org/2000/svg">
<path d="M8 31.8202C8 30.1936 6.20914 28.875 4 28.875C1.79086 28.875 0 30.1936 0 31.8202V50.1121C0 51.7387 1.79086 53.0573 4 53.0573C6.20914 53.0573 8 51.7387 8 50.1121V31.8202Z" fill="#4D44B5"/>
<path d="M26 21.3255C26 19.7197 24.2091 18.418 22 18.418C19.7909 18.418 18 19.7197 18 21.3255V50.15C18 51.7557 19.7909 53.0575 22 53.0575C24.2091 53.0575 26 51.7557 26 50.15V21.3255Z" fill="#4D44B5"/>
<path d="M44 3.07957C44 1.44349 42.2091 0.117188 40 0.117188C37.7909 0.117188 36 1.44349 36 3.07957V50.0944C36 51.7305 37.7909 53.0568 40 53.0568C42.2091 53.0568 44 51.7305 44 50.0944V3.07957Z" fill="#4D44B5"/>
<path d="M62 26.591C62 24.9637 60.2091 23.6445 58 23.6445C55.7909 23.6445 54 24.9637 54 26.591V50.109C54 51.7363 55.7909 53.0554 58 53.0554C60.2091 53.0554 62 51.7363 62 50.109V26.591Z" fill="#4D44B5"/>
</svg>
