<svg width="24" height="6" viewBox="0 0 24 6" fill="none" xmlns="http://www.w3.org/2000/svg">
<path d="M12.0012 0.359375C11.6543 0.359375 11.3109 0.427692 10.9904 0.560424C10.67 0.693157 10.3788 0.887707 10.1335 1.13296C9.88829 1.37822 9.69374 1.66939 9.56101 1.98983C9.42828 2.31028 9.35996 2.65373 9.35996 3.00058C9.35996 3.34742 9.42828 3.69087 9.56101 4.01132C9.69374 4.33176 9.88829 4.62293 10.1335 4.86819C10.3788 5.11344 10.67 5.30799 10.9904 5.44073C11.3109 5.57346 11.6543 5.64178 12.0012 5.64178C12.7017 5.64162 13.3734 5.3632 13.8686 4.86776C14.3638 4.37233 14.6419 3.70046 14.6418 2.99997C14.6416 2.29948 14.3632 1.62775 13.8677 1.13254C13.3723 0.637332 12.7004 0.359216 12 0.359375H12.0012ZM3.60116 0.359375C3.25431 0.359375 2.91086 0.427692 2.59042 0.560424C2.26997 0.693157 1.97881 0.887707 1.73355 1.13296C1.48829 1.37822 1.29374 1.66939 1.16101 1.98983C1.02828 2.31028 0.959961 2.65373 0.959961 3.00058C0.959961 3.34742 1.02828 3.69087 1.16101 4.01132C1.29374 4.33176 1.48829 4.62293 1.73355 4.86819C1.97881 5.11344 2.26997 5.30799 2.59042 5.44073C2.91086 5.57346 3.25431 5.64178 3.60116 5.64178C4.30165 5.64162 4.97339 5.3632 5.4686 4.86776C5.9638 4.37233 6.24192 3.70046 6.24176 2.99997C6.2416 2.29948 5.96318 1.62775 5.46775 1.13254C4.97231 0.637332 4.30045 0.359216 3.59996 0.359375H3.60116ZM20.4012 0.359375C20.0543 0.359375 19.7109 0.427692 19.3904 0.560424C19.07 0.693157 18.7788 0.887707 18.5336 1.13296C18.2883 1.37822 18.0937 1.66939 17.961 1.98983C17.8283 2.31028 17.76 2.65373 17.76 3.00058C17.76 3.34742 17.8283 3.69087 17.961 4.01132C18.0937 4.33176 18.2883 4.62293 18.5336 4.86819C18.7788 5.11344 19.07 5.30799 19.3904 5.44073C19.7109 5.57346 20.0543 5.64178 20.4012 5.64178C21.1017 5.64162 21.7734 5.3632 22.2686 4.86776C22.7638 4.37233 23.0419 3.70046 23.0418 2.99997C23.0416 2.29948 22.7632 1.62775 22.2677 1.13254C21.7723 0.637332 21.1005 0.359216 20.4 0.359375H20.4012Z" fill="#A098AE"/>
</svg>
