<svg width="22" height="20" viewBox="0 0 22 20" fill="none" xmlns="http://www.w3.org/2000/svg">
<path d="M8.19531 16.3125C8.45508 16.832 8.97461 17.166 9.60547 17.166H14.3555V18.6504C14.3555 19.1699 13.9473 19.541 13.4648 19.541H0.996094C0.476562 19.541 0.105469 19.1699 0.105469 18.6504V1.43164C0.105469 0.949219 0.476562 0.541016 0.996094 0.541016H8.41797V5.58789C8.41797 6.10742 8.78906 6.47852 9.30859 6.47852H14.3555V8.22266L9.60547 12.9355V15.9785C9.45703 15.9785 9.30859 15.9043 9.23438 15.7559C8.78906 14.8652 7.52734 14.6426 6.78516 15.2363L6.26562 13.6777C6.1543 13.3066 5.82031 13.084 5.44922 13.084C5.04102 13.084 4.70703 13.3066 4.5957 13.6777L3.92773 15.7188C3.85352 15.8672 3.70508 15.9785 3.51953 15.9785H3.07422C2.74023 15.9785 2.48047 16.2754 2.48047 16.5723C2.48047 16.9062 2.74023 17.166 3.07422 17.166H3.51953C4.22461 17.166 4.81836 16.7578 5.04102 16.0898L5.44922 14.9023L6.04297 16.7949C6.22852 17.2773 6.89648 17.3145 7.15625 16.8691L7.41602 16.2754C7.52734 16.0898 7.71289 16.0527 7.82422 16.0527C7.89844 16.0527 8.08398 16.0898 8.19531 16.3125ZM14.3555 5.06836V5.29102H9.60547V0.541016H9.82812C10.0508 0.541016 10.2734 0.652344 10.459 0.800781L14.0957 4.4375C14.2441 4.62305 14.3555 4.8457 14.3555 5.06836ZM10.793 13.418L16.8047 7.44336L19.3281 9.9668L13.3164 15.9785H10.793V13.418ZM21.1836 6.77539C21.5547 7.14648 21.5547 7.74023 21.1836 8.11133L20.1816 9.11328L17.6582 6.58984L18.6602 5.58789C19.0312 5.2168 19.625 5.2168 19.9961 5.58789L21.1836 6.77539Z" fill="white"/>
</svg>
