<svg width="43" height="49" viewBox="0 0 43 49" fill="none" xmlns="http://www.w3.org/2000/svg">
<ellipse cx="21.3695" cy="24.4375" rx="21.0557" ry="24.0625" fill="#DC3546"/>
<path d="M24.1951 33.3125C24.4548 33.832 24.9744 34.166 25.6052 34.166H30.3552V35.6504C30.3552 36.1699 29.947 36.541 29.4646 36.541H16.9958C16.4763 36.541 16.1052 36.1699 16.1052 35.6504V18.4316C16.1052 17.9492 16.4763 17.541 16.9958 17.541H24.4177V22.5879C24.4177 23.1074 24.7888 23.4785 25.3083 23.4785H30.3552V25.2227L25.6052 29.9355V32.9785C25.4568 32.9785 25.3083 32.9043 25.2341 32.7559C24.7888 31.8652 23.5271 31.6426 22.7849 32.2363L22.2654 30.6777C22.1541 30.3066 21.8201 30.084 21.449 30.084C21.0408 30.084 20.7068 30.3066 20.5955 30.6777L19.9275 32.7188C19.8533 32.8672 19.7048 32.9785 19.5193 32.9785H19.074C18.74 32.9785 18.4802 33.2754 18.4802 33.5723C18.4802 33.9062 18.74 34.166 19.074 34.166H19.5193C20.2244 34.166 20.8181 33.7578 21.0408 33.0898L21.449 31.9023L22.0427 33.7949C22.2283 34.2773 22.8962 34.3145 23.156 33.8691L23.4158 33.2754C23.5271 33.0898 23.7126 33.0527 23.824 33.0527C23.8982 33.0527 24.0837 33.0898 24.1951 33.3125ZM30.3552 22.0684V22.291H25.6052V17.541H25.8279C26.0505 17.541 26.2732 17.6523 26.4587 17.8008L30.0955 21.4375C30.2439 21.623 30.3552 21.8457 30.3552 22.0684ZM26.7927 30.418L32.8044 24.4434L35.3279 26.9668L29.3162 32.9785H26.7927V30.418ZM37.1833 23.7754C37.5544 24.1465 37.5544 24.7402 37.1833 25.1113L36.1814 26.1133L33.658 23.5898L34.6599 22.5879C35.031 22.2168 35.6248 22.2168 35.9958 22.5879L37.1833 23.7754Z" fill="white"/>
</svg>
