<svg width="24" height="24" viewBox="0 0 24 24" fill="none" xmlns="http://www.w3.org/2000/svg">
<path d="M20.0001 4H4.00012C3.20447 4 2.44141 4.31607 1.8788 4.87868C1.31619 5.44129 1.00012 6.20435 1.00012 7V17C1.00012 17.7956 1.31619 18.5587 1.8788 19.1213C2.44141 19.6839 3.20447 20 4.00012 20H20.0001C20.7958 20 21.5588 19.6839 22.1214 19.1213C22.6841 18.5587 23.0001 17.7956 23.0001 17V7C23.0001 6.20435 22.6841 5.44129 22.1214 4.87868C21.5588 4.31607 20.7958 4 20.0001 4ZM21.0001 16.75L16.1001 12.35L21.0001 8.92V16.75ZM3.00012 8.92L7.90012 12.35L3.00012 16.75V8.92ZM9.58012 13.53L11.4301 14.82C11.5975 14.9361 11.7964 14.9984 12.0001 14.9984C12.2039 14.9984 12.4027 14.9361 12.5701 14.82L14.4201 13.53L19.4201 18H4.60012L9.58012 13.53ZM4.00012 6H20.0001C20.1858 6.00149 20.3675 6.05467 20.5247 6.15358C20.6819 6.25249 20.8084 6.39322 20.8901 6.56L12.0001 12.78L3.11012 6.56C3.19183 6.39322 3.31838 6.25249 3.47557 6.15358C3.63277 6.05467 3.8144 6.00149 4.00012 6Z" fill="#4D44B5"/>
</svg>
