<svg width="24" height="24" viewBox="0 0 24 24" fill="none" xmlns="http://www.w3.org/2000/svg">
<path d="M19.44 12.9994C19.22 12.9994 18.99 12.9294 18.77 12.8794C18.3245 12.7812 17.8866 12.6509 17.46 12.4894C16.9961 12.3206 16.4861 12.3294 16.0283 12.514C15.5704 12.6986 15.1971 13.046 14.98 13.4894L14.76 13.9394C13.786 13.3976 12.891 12.7246 12.1 11.9394C11.3147 11.1484 10.6418 10.2534 10.1 9.27938L10.52 8.99938C10.9633 8.7823 11.3108 8.40891 11.4954 7.95107C11.68 7.49323 11.6888 6.98329 11.52 6.51938C11.3612 6.0918 11.2309 5.65418 11.13 5.20938C11.08 4.98938 11.04 4.75938 11.01 4.52938C10.8885 3.825 10.5196 3.18712 9.9696 2.73062C9.4196 2.27412 8.72467 2.02899 8.00998 2.03938H5.00998C4.57901 2.03533 4.15223 2.12419 3.75869 2.29991C3.36515 2.47563 3.01409 2.73408 2.72941 3.05766C2.44473 3.38125 2.23311 3.76237 2.10897 4.17509C1.98482 4.58781 1.95106 5.02244 2.00998 5.44938C2.54272 9.63876 4.45601 13.5313 7.44763 16.512C10.4393 19.4928 14.3387 21.3919 18.53 21.9094H18.91C19.6474 21.9105 20.3594 21.6399 20.91 21.1494C21.2263 20.8664 21.4791 20.5196 21.6514 20.1317C21.8238 19.7438 21.9119 19.3238 21.91 18.8994V15.8994C21.8977 15.2048 21.6448 14.5359 21.1943 14.007C20.7439 13.4782 20.1238 13.122 19.44 12.9994ZM19.94 18.9994C19.9398 19.1414 19.9094 19.2817 19.8508 19.411C19.7921 19.5403 19.7066 19.6557 19.6 19.7494C19.4882 19.8459 19.3576 19.9179 19.2164 19.961C19.0752 20.004 18.9265 20.0171 18.78 19.9994C15.0349 19.5192 11.5562 17.8059 8.89269 15.1297C6.22917 12.4535 4.53239 8.96672 4.06998 5.21938C4.05406 5.0729 4.06801 4.92471 4.11098 4.78377C4.15395 4.64283 4.22505 4.51207 4.31998 4.39938C4.41369 4.29271 4.52904 4.20722 4.65836 4.1486C4.78767 4.08997 4.92799 4.05956 5.06998 4.05938H8.06998C8.30253 4.05421 8.5296 4.13026 8.71212 4.27445C8.89464 4.41864 9.02119 4.62195 9.06998 4.84938C9.10998 5.12271 9.15998 5.39271 9.21998 5.65938C9.3355 6.18652 9.48924 6.70456 9.67998 7.20938L8.27998 7.85938C8.16028 7.9143 8.0526 7.99233 7.96314 8.08898C7.87367 8.18562 7.80418 8.29899 7.75865 8.42257C7.71312 8.54615 7.69245 8.67751 7.69783 8.8091C7.7032 8.94069 7.73452 9.06992 7.78998 9.18938C9.22918 12.2721 11.7072 14.7502 14.79 16.1894C15.0334 16.2894 15.3065 16.2894 15.55 16.1894C15.6747 16.1448 15.7893 16.0758 15.8871 15.9866C15.985 15.8973 16.0641 15.7895 16.12 15.6694L16.74 14.2694C17.2569 14.4543 17.7846 14.6079 18.32 14.7294C18.5866 14.7894 18.8566 14.8394 19.13 14.8794C19.3574 14.9282 19.5607 15.0547 19.7049 15.2372C19.8491 15.4198 19.9252 15.6468 19.92 15.8794L19.94 18.9994Z" fill="#4D44B5"/>
</svg>
