<svg width="24" height="24" viewBox="0 0 24 24" fill="none" xmlns="http://www.w3.org/2000/svg">
<path d="M23.6 21.7996L18 16.1996C19.3 14.4996 20.1 12.3996 20.1 10.0996C20.1 4.59961 15.6 0.0996094 10.1 0.0996094C4.6 0.0996094 0 4.59961 0 10.0996C0 15.5996 4.5 20.0996 10 20.0996C12.3 20.0996 14.5 19.2996 16.2 17.8996L21.8 23.4996C22 23.6996 22.4 23.8996 22.7 23.8996C23 23.8996 23.3 23.7996 23.6 23.4996C24.1 23.0996 24.1 22.2996 23.6 21.7996ZM2.5 10.0996C2.5 5.99961 5.9 2.59961 10 2.59961C14.1 2.59961 17.5 5.99961 17.5 10.0996C17.5 14.1996 14.1 17.5996 10 17.5996C5.9 17.5996 2.5 14.2996 2.5 10.0996Z" fill="#4D44B5"/>
</svg>
