<svg width="39" height="36" viewBox="0 0 39 36" fill="none" xmlns="http://www.w3.org/2000/svg">
<g clip-path="url(#clip0_3921_5245)">
<path fill-rule="evenodd" clip-rule="evenodd" d="M17.5375 34.105H8.83064C6.86588 34.105 5.27344 32.6289 5.27344 30.8076V21.6507C5.27344 20.0569 6.50304 18.6918 8.19389 18.4071C10.7005 17.9839 15.0225 17.2552 17.4675 16.8441C18.8133 16.6166 20.1911 16.6166 21.5369 16.8441C23.9819 17.2552 28.3039 17.9839 30.8106 18.4071C32.5014 18.6918 33.731 20.0569 33.731 21.6507C33.731 24.0479 33.731 28.2422 33.731 30.8076C33.731 32.6289 32.1386 34.105 30.1738 34.105H17.5375ZM28.7841 20.2998L28.7889 20.3053C28.9964 20.5933 29.045 20.9549 28.9205 21.2813L28.0834 23.4796C27.9743 23.7665 27.7407 23.9995 27.4395 24.1215L25.8649 24.7579L26.4909 25.9197C26.6664 26.244 26.6569 26.6276 26.4672 26.9452L23.4934 31.9067H30.1738C30.8283 31.9067 31.3596 31.4143 31.3596 30.8076C31.3596 28.2422 31.3596 24.0479 31.3596 21.6507C31.3596 21.1198 30.9493 20.6647 30.3861 20.5691L28.7841 20.2998ZM25.5412 19.7525L21.1125 19.0061C20.0477 18.827 18.9568 18.827 17.892 19.0061L13.4633 19.7525L12.5171 21.0681L12.9854 22.297L15.2336 23.2048C15.5312 23.3257 15.7624 23.5544 15.8739 23.8379C15.9853 24.1215 15.9652 24.4348 15.8193 24.7041L14.9134 26.3836L18.224 31.9067H20.7805L24.091 26.3836L23.1851 24.7041C23.0393 24.4348 23.0191 24.1215 23.1306 23.8379C23.242 23.5544 23.4732 23.3257 23.7709 23.2048L26.019 22.297L26.4874 21.0681L25.5412 19.7525ZM10.2203 20.2998L8.61839 20.5691C8.05517 20.6647 7.6449 21.1198 7.6449 21.6507V30.8076C7.6449 31.4143 8.17611 31.9067 8.83064 31.9067H15.5111L12.5372 26.9452C12.3475 26.6276 12.338 26.244 12.5135 25.9197L13.1396 24.7579L11.5649 24.1215C11.2638 23.9995 11.0302 23.7665 10.9211 23.4796L10.084 21.2813C9.95945 20.9549 10.0081 20.5933 10.2156 20.3053L10.2203 20.2998ZM27.8024 26.411V28.6093C27.8024 29.216 28.3336 29.7084 28.9881 29.7084C29.6426 29.7084 30.1738 29.216 30.1738 28.6093V26.411C30.1738 25.8043 29.6426 25.3119 28.9881 25.3119C28.3336 25.3119 27.8024 25.8043 27.8024 26.411ZM19.5022 1.13086C15.249 1.13086 11.795 4.33265 11.795 8.27526C11.795 12.2179 15.249 15.4197 19.5022 15.4197C23.7555 15.4197 27.2095 12.2179 27.2095 8.27526C27.2095 4.33265 23.7555 1.13086 19.5022 1.13086ZM19.5022 3.32914C22.4476 3.32914 24.838 5.545 24.838 8.27526C24.838 11.0055 22.4476 13.2214 19.5022 13.2214C16.5569 13.2214 14.1664 11.0055 14.1664 8.27526C14.1664 5.545 16.5569 3.32914 19.5022 3.32914Z" fill="white"/>
</g>
<defs>
<clipPath id="clip0_3921_5245">
<rect width="37.9434" height="35.1724" fill="white" transform="translate(0.53125 0.03125)"/>
</clipPath>
</defs>
</svg>
