<svg width="39" height="36" viewBox="0 0 39 36" fill="none" xmlns="http://www.w3.org/2000/svg">
<g clip-path="url(#clip0_3921_5257)">
<path fill-rule="evenodd" clip-rule="evenodd" d="M5.71094 30.8076C5.71094 32.6289 7.30338 34.105 9.26814 34.105H30.6113C32.5761 34.105 34.1685 32.6289 34.1685 30.8076C34.1685 28.2422 34.1685 24.0479 34.1685 21.6507C34.1685 20.0569 32.9389 18.6918 31.2481 18.4071C28.7414 17.9839 24.4194 17.2552 21.9744 16.8441C20.6286 16.6166 19.2508 16.6166 17.905 16.8441C15.46 17.2552 11.138 17.9839 8.63139 18.4071C6.94054 18.6918 5.71094 20.0569 5.71094 21.6507V30.8076ZM22.6764 19.1963L24.4562 25.4691C24.6898 26.2923 24.3767 27.1661 23.6582 27.6981C23.0511 28.1466 22.0942 28.8544 21.4302 29.3468C20.5587 29.9909 19.3208 29.9909 18.4493 29.3468C17.7852 28.8544 16.8284 28.1466 16.2213 27.6981C15.5027 27.1661 15.1897 26.2923 15.4233 25.4691L17.2031 19.1963L9.05589 20.5691C8.49267 20.6647 8.0824 21.1198 8.0824 21.6507V30.8076C8.0824 31.4143 8.61361 31.9067 9.26814 31.9067C14.2292 31.9067 25.6502 31.9067 30.6113 31.9067C31.2658 31.9067 31.7971 31.4143 31.7971 30.8076C31.7971 28.2422 31.7971 24.0479 31.7971 21.6507C31.7971 21.1198 31.3868 20.6647 30.8236 20.5691L22.6764 19.1963ZM20.133 18.8742C20.0038 18.871 19.8757 18.871 19.7465 18.8742L17.726 25.9989L19.9291 27.6278C19.935 27.6333 19.9445 27.6333 19.9504 27.6278L22.1535 25.9989L20.133 18.8742ZM19.9397 1.13086C15.6865 1.13086 12.2325 4.33265 12.2325 8.27526C12.2325 12.2179 15.6865 15.4197 19.9397 15.4197C24.193 15.4197 27.647 12.2179 27.647 8.27526C27.647 4.33265 24.193 1.13086 19.9397 1.13086ZM19.9397 3.32914C22.8851 3.32914 25.2755 5.545 25.2755 8.27526C25.2755 11.0055 22.8851 13.2214 19.9397 13.2214C16.9944 13.2214 14.6039 11.0055 14.6039 8.27526C14.6039 5.545 16.9944 3.32914 19.9397 3.32914Z" fill="white"/>
</g>
<defs>
<clipPath id="clip0_3921_5257">
<rect width="37.9434" height="35.1724" fill="white" transform="translate(0.96875 0.03125)"/>
</clipPath>
</defs>
</svg>
