<svg width="56" height="56" viewBox="0 0 56 56" fill="none" xmlns="http://www.w3.org/2000/svg">
<rect width="56" height="56" rx="28" fill="#FF4550"/>
<g clipPath="url(#clip0_1153_4847)">
<path d="M40.0001 21.3333C40.0128 21.2404 40.0128 21.1462 40.0001 21.0533C39.9885 20.9751 39.9661 20.8988 39.9335 20.8267C39.8983 20.7615 39.8581 20.6991 39.8135 20.64C39.7628 20.5557 39.6998 20.4793 39.6268 20.4133L39.4668 20.32C39.3898 20.2626 39.3044 20.2176 39.2135 20.1867H38.9468C38.8656 20.108 38.7707 20.0447 38.6668 20H32.0001C31.6465 20 31.3074 20.1405 31.0573 20.3905C30.8073 20.6406 30.6668 20.9797 30.6668 21.3333C30.6668 21.687 30.8073 22.0261 31.0573 22.2761C31.3074 22.5262 31.6465 22.6667 32.0001 22.6667H35.7735L30.4401 28.9467L24.6801 25.52C24.4073 25.3577 24.0856 25.2981 23.7727 25.3519C23.4599 25.4057 23.1765 25.5693 22.9735 25.8133L16.3068 33.8133C16.1945 33.9481 16.11 34.1036 16.0579 34.2711C16.0058 34.4386 15.9873 34.6147 16.0034 34.7893C16.0195 34.9639 16.0699 35.1337 16.1517 35.2888C16.2335 35.4439 16.3451 35.5814 16.4801 35.6933C16.72 35.8921 17.0219 36.0006 17.3335 36C17.5294 36.0003 17.7229 35.9575 17.9004 35.8745C18.0778 35.7915 18.2348 35.6705 18.3601 35.52L24.2935 28.4L29.9868 31.8133C30.2569 31.9735 30.5748 32.0332 30.8845 31.982C31.1943 31.9308 31.476 31.7719 31.6801 31.5333L37.3335 24.9333V28C37.3335 28.3536 37.474 28.6928 37.724 28.9428C37.9741 29.1929 38.3132 29.3333 38.6668 29.3333C39.0204 29.3333 39.3596 29.1929 39.6096 28.9428C39.8597 28.6928 40.0001 28.3536 40.0001 28V21.3333Z" fill="white"/>
</g>
<defs>
<clipPath id="clip0_1153_4847">
<rect width="32" height="32" fill="white" transform="translate(12 12)"/>
</clipPath>
</defs>
</svg>
