<svg width="48" height="48" viewBox="0 0 48 48" fill="none" xmlns="http://www.w3.org/2000/svg">
<rect width="48" height="48" rx="24" fill="#FB7D5B"/>
<path d="M27.7054 18.5252C27.7054 18.7314 27.6913 18.9377 27.6656 19.1416C27.6773 19.0595 27.689 18.9752 27.6984 18.8931C27.6421 19.3009 27.5343 19.697 27.3773 20.0767C27.4077 20.0017 27.4405 19.9267 27.471 19.8517C27.314 20.222 27.1124 20.5689 26.8663 20.8877C26.9155 20.8244 26.9648 20.7611 27.014 20.6978C26.7702 21.0119 26.4866 21.2955 26.1726 21.5392C26.2359 21.49 26.2991 21.4408 26.3624 21.3916C26.0437 21.6353 25.6968 21.8392 25.3265 21.9962C25.4015 21.9658 25.4765 21.933 25.5515 21.9025C25.1718 22.0595 24.7757 22.1673 24.3679 22.2236C24.4499 22.2119 24.5343 22.2002 24.6163 22.1908C24.2062 22.2447 23.7937 22.2447 23.3835 22.1908C23.4655 22.2025 23.5499 22.2142 23.632 22.2236C23.2241 22.1673 22.828 22.0595 22.4484 21.9025C22.5234 21.933 22.5984 21.9658 22.6734 21.9962C22.303 21.8392 21.9562 21.6377 21.6374 21.3916C21.7007 21.4408 21.764 21.49 21.8273 21.5392C21.5132 21.2955 21.2296 21.0119 20.9859 20.6978C21.0351 20.7611 21.0843 20.8244 21.1335 20.8877C20.8898 20.5689 20.6859 20.222 20.5288 19.8517C20.5593 19.9267 20.5921 20.0017 20.6226 20.0767C20.4655 19.697 20.3577 19.3009 20.3015 18.8931C20.3132 18.9752 20.3249 19.0595 20.3343 19.1416C20.2804 18.7314 20.2804 18.3189 20.3343 17.9087C20.3226 17.9908 20.3109 18.0752 20.3015 18.1572C20.3577 17.7494 20.4655 17.3533 20.6226 16.9736C20.5921 17.0486 20.5593 17.1236 20.5288 17.1986C20.6859 16.8283 20.8874 16.4814 21.1335 16.1627C21.0843 16.2259 21.0351 16.2892 20.9859 16.3525C21.2296 16.0384 21.5132 15.7548 21.8273 15.5111C21.764 15.5603 21.7007 15.6095 21.6374 15.6587C21.9562 15.415 22.303 15.2111 22.6734 15.0541C22.5984 15.0845 22.5234 15.1173 22.4484 15.1478C22.828 14.9908 23.2241 14.883 23.632 14.8267C23.5499 14.8384 23.4655 14.8502 23.3835 14.8595C23.7937 14.8056 24.2062 14.8056 24.6163 14.8595C24.5343 14.8478 24.4499 14.8361 24.3679 14.8267C24.7757 14.883 25.1718 14.9908 25.5515 15.1478C25.4765 15.1173 25.4015 15.0845 25.3265 15.0541C25.6968 15.2111 26.0437 15.4127 26.3624 15.6587C26.2991 15.6095 26.2359 15.5603 26.1726 15.5111C26.4866 15.7548 26.7702 16.0384 27.014 16.3525C26.9648 16.2892 26.9155 16.2259 26.8663 16.1627C27.1101 16.4814 27.314 16.8283 27.471 17.1986C27.4405 17.1236 27.4077 17.0486 27.3773 16.9736C27.5343 17.3533 27.6421 17.7494 27.6984 18.1572C27.6866 18.0752 27.6749 17.9908 27.6656 17.9087C27.6913 18.1127 27.703 18.3189 27.7054 18.5252C27.7077 19.015 28.1343 19.4861 28.6429 19.4627C29.1491 19.4392 29.5827 19.0502 29.5804 18.5252C29.5757 17.4025 29.2382 16.2541 28.5773 15.34C28.3991 15.0939 28.2093 14.8525 27.9984 14.6345C27.7851 14.4142 27.5507 14.2244 27.307 14.0392C26.864 13.7017 26.3695 13.4533 25.8445 13.2611C23.728 12.4853 21.1757 13.1767 19.7437 14.9205C19.5468 15.1595 19.3593 15.408 19.1999 15.6752C19.0405 15.94 18.9163 16.2212 18.8015 16.5072C18.5859 17.0369 18.4757 17.5994 18.4312 18.1689C18.3444 19.2845 18.6351 20.4494 19.2163 21.4056C19.7765 22.3291 20.6226 23.1212 21.6116 23.5689C21.9023 23.7002 22.1999 23.822 22.5093 23.9087C22.8163 23.9931 23.128 24.04 23.4445 24.0775C24.021 24.1455 24.6093 24.0986 25.1788 23.9837C27.3421 23.5431 29.1538 21.6798 29.489 19.4931C29.5382 19.1744 29.5757 18.8556 29.5757 18.5322C29.5781 18.0423 29.1421 17.5712 28.6382 17.5947C28.132 17.6111 27.7054 18.0002 27.7054 18.5252ZM30.8156 33.1806C30.3562 33.1806 29.8968 33.1806 29.4374 33.1806C28.3429 33.1806 27.2507 33.1806 26.1562 33.1806C24.839 33.1806 23.5218 33.1806 22.2023 33.1806C21.0655 33.1806 19.9288 33.1806 18.7898 33.1806C18.2577 33.1806 17.7257 33.1853 17.1937 33.1806C17.1351 33.1806 17.0765 33.1759 17.0202 33.1689C17.1023 33.1806 17.1866 33.1923 17.2687 33.2017C17.1749 33.1877 17.0859 33.1619 16.9991 33.1267C17.0741 33.1572 17.1491 33.19 17.2241 33.2205C17.1304 33.1806 17.0437 33.1291 16.9616 33.0658C17.0249 33.115 17.0882 33.1642 17.1515 33.2134C17.0812 33.1548 17.0155 33.0916 16.9593 33.0212C17.0085 33.0845 17.0577 33.1478 17.1069 33.2111C17.0437 33.1291 16.9944 33.0423 16.9523 32.9486C16.9827 33.0236 17.0155 33.0986 17.046 33.1736C17.0109 33.0869 16.9874 32.9955 16.971 32.9041C16.9827 32.9861 16.9944 33.0705 17.0038 33.1525C16.9663 32.8689 16.9921 32.5689 16.9921 32.283C16.9921 31.9478 16.9921 31.615 16.9921 31.2798C16.9921 31.0291 17.0062 30.7806 17.039 30.5322C17.0273 30.6142 17.0155 30.6986 17.0062 30.7806C17.0718 30.3002 17.1984 29.8291 17.3882 29.3814C17.3577 29.4564 17.3249 29.5314 17.2944 29.6064C17.4773 29.1798 17.7116 28.7791 17.9952 28.4111C17.946 28.4744 17.8968 28.5377 17.8476 28.6009C18.1312 28.2377 18.4569 27.9095 18.8226 27.6259C18.7593 27.6752 18.696 27.7244 18.6327 27.7736C19.0007 27.49 19.4015 27.2556 19.828 27.0728C19.753 27.1033 19.678 27.1361 19.603 27.1666C20.0507 26.9791 20.5195 26.8502 21.0023 26.7845C20.9202 26.7962 20.8359 26.808 20.7538 26.8173C21.1007 26.7728 21.4452 26.7705 21.7945 26.7705C22.2234 26.7705 22.6523 26.7705 23.0812 26.7705C24.082 26.7705 25.0827 26.7705 26.0835 26.7705C26.4702 26.7705 26.8546 26.7681 27.2413 26.8173C27.1593 26.8056 27.0749 26.7939 26.9929 26.7845C27.4734 26.8502 27.9445 26.9767 28.3921 27.1666C28.3171 27.1361 28.2421 27.1033 28.1671 27.0728C28.5937 27.2556 28.9945 27.49 29.3624 27.7736C29.2991 27.7244 29.2359 27.6752 29.1726 27.6259C29.5359 27.9095 29.864 28.2353 30.1476 28.6009C30.0984 28.5377 30.0491 28.4744 29.9999 28.4111C30.2835 28.7791 30.5179 29.1798 30.7007 29.6064C30.6702 29.5314 30.6374 29.4564 30.607 29.3814C30.7945 29.8291 30.9234 30.2978 30.989 30.7806C30.9773 30.6986 30.9656 30.6142 30.9562 30.5322C31.0007 30.8861 31.0031 31.2377 31.0031 31.5939C31.0031 31.9806 31.0031 32.3673 31.0031 32.7541C31.0031 32.8877 31.0077 33.0212 30.9913 33.1525C31.0031 33.0705 31.0148 32.9861 31.0241 32.9041C31.0101 32.9978 30.9843 33.0869 30.9491 33.1736C30.9796 33.0986 31.0124 33.0236 31.0429 32.9486C31.0031 33.0423 30.9515 33.1291 30.8882 33.2111C30.9374 33.1478 30.9866 33.0845 31.0359 33.0212C30.9773 33.0916 30.914 33.1572 30.8437 33.2134C30.907 33.1642 30.9702 33.115 31.0335 33.0658C30.9515 33.1291 30.8648 33.1783 30.771 33.2205C30.846 33.19 30.921 33.1572 30.996 33.1267C30.9093 33.1619 30.8179 33.1853 30.7265 33.2017C30.8085 33.19 30.8929 33.1783 30.9749 33.1689C30.9234 33.1759 30.8695 33.1783 30.8156 33.1806C30.5741 33.183 30.3257 33.2837 30.1523 33.4548C29.9906 33.6166 29.8663 33.8837 29.8781 34.1181C29.9015 34.6197 30.2906 35.0627 30.8156 35.0556C31.7273 35.0416 32.5288 34.4462 32.796 33.572C32.9015 33.2252 32.8781 32.8525 32.8781 32.4962C32.8781 31.6806 32.9038 30.872 32.7632 30.0634C32.557 28.8798 31.9616 27.7666 31.146 26.8923C30.3304 26.0181 29.2335 25.3759 28.0734 25.09C27.4077 24.9259 26.7374 24.9002 26.0577 24.9002C25.3593 24.9002 24.6632 24.9002 23.9648 24.9002C23.2757 24.9002 22.589 24.9002 21.8999 24.9002C21.2038 24.9002 20.5124 24.933 19.8351 25.1134C18.6843 25.4181 17.6015 26.0673 16.8023 26.9486C15.996 27.8369 15.4124 28.9525 15.2226 30.1431C15.096 30.9423 15.1218 31.7439 15.1218 32.5502C15.1218 32.9205 15.1007 33.3072 15.2343 33.6611C15.4077 34.1158 15.6843 34.4744 16.0898 34.7439C16.4062 34.9525 16.8069 35.0533 17.1819 35.058C17.3648 35.0603 17.5476 35.058 17.7304 35.058C18.1991 35.058 18.6655 35.058 19.1343 35.058C19.7999 35.058 20.4632 35.058 21.1288 35.058C21.9023 35.058 22.6757 35.058 23.4491 35.058C24.2437 35.058 25.0359 35.058 25.8304 35.058C26.557 35.058 27.2812 35.058 28.0077 35.058C28.5773 35.058 29.1468 35.058 29.714 35.058C30.0398 35.058 30.3656 35.058 30.6913 35.058C30.7335 35.058 30.7757 35.058 30.8179 35.058C31.3077 35.058 31.7788 34.6267 31.7554 34.1205C31.732 33.6095 31.3429 33.1806 30.8156 33.1806Z" fill="white"/>
</svg>
