<svg width="24" height="23" viewBox="0 0 24 23" fill="none" xmlns="http://www.w3.org/2000/svg">
<path fillRule="evenodd" clipRule="evenodd" d="M11.922 20.7008C17.1596 20.7008 21.4054 16.5818 21.4054 11.5008C21.4054 6.41976 17.1596 2.30078 11.922 2.30078C6.68447 2.30078 2.4386 6.41976 2.4386 11.5008C2.4386 16.5818 6.68447 20.7008 11.922 20.7008ZM13.1074 8.05078C13.1074 7.41565 12.5767 6.90078 11.922 6.90078C11.2673 6.90078 10.7366 7.41565 10.7366 8.05078V10.3508H8.36573C7.71104 10.3508 7.1803 10.8657 7.1803 11.5008C7.1803 12.1359 7.71104 12.6508 8.36573 12.6508H10.7366V14.9508C10.7366 15.5859 11.2673 16.1008 11.922 16.1008C12.5767 16.1008 13.1074 15.5859 13.1074 14.9508V12.6508H15.4783C16.133 12.6508 16.6637 12.1359 16.6637 11.5008C16.6637 10.8657 16.133 10.3508 15.4783 10.3508H13.1074V8.05078Z" fill="#666666"/>
</svg>
